<?xml version="1.0" encoding="UTF-8"?>
<svg width="71px" height="48px" viewBox="0 0 71 48" version="1.1" xmlns="http://www.w3.org/2000/svg" xmlns:xlink="http://www.w3.org/1999/xlink">
    <!-- Generator: Sketch 48.2 (47327) - http://www.bohemiancoding.com/sketch -->
    <title>Artboard</title>
    <desc>Created with Sketch.</desc>
    <defs></defs>
    <g id="Page-1" stroke="none" stroke-width="1" fill="none" fill-rule="evenodd">
        <g id="Artboard" fill="#000000">
            <path d="M1.27767023,12.0717111 L1.25948994,10.6900093 L1.25948994,10.6172881 C1.25948994,9.96279774 1.4776534,9.69009343 2.0776029,9.69009343 C2.40484808,9.69009343 2.75027355,10.1446006 3.69564851,10.1446006 C4.33195859,10.1446006 4.6228432,9.90825688 4.6228432,9.34466796 C4.6228432,8.526555 3.76836967,8.07204781 2.80481441,7.14485313 C1.73217743,6.10857672 1.27767023,5.0904806 1.27767023,3.69059843 C1.27767023,1.23625957 2.64119182,0 5.368235,0 C7.16808349,0 7.24080465,0.127262015 7.24080465,1.16353842 L7.24080465,2.49069944 C7.24080465,3.21791095 7.14990321,3.38153354 6.60449457,3.38153354 C6.14998737,3.38153354 5.73184075,3.1451898 5.27733356,3.1451898 C4.73192492,3.1451898 4.44104032,3.39971383 4.44104032,3.87240131 C4.44104032,4.54507196 5.33187442,5.10866089 6.58631428,6.36310075 C7.53168925,7.30847572 7.84075415,8.16294925 7.84075415,9.39920882 C7.84075415,12.0717111 6.64085515,13.3443313 3.96835283,13.3443313 C2.78663412,13.3443313 1.96852117,13.1443481 1.6230957,12.9807255 C1.29585052,12.8171029 1.27767023,12.5807592 1.27767023,12.1989732 L1.27767023,12.0717111 Z M13.4221025,3.79968016 L13.4402828,11.1626967 C13.4402828,11.7262857 13.4948237,12.126252 13.4948237,12.3625957 C13.4948237,12.9080044 13.3130208,13.1261678 12.8403333,13.1261678 C12.7494319,13.1261678 12.6039896,13.1079875 12.4040064,13.1079875 C12.0949415,13.1079875 11.7131555,13.1625284 11.2586483,13.1625284 C10.6586988,13.1625284 10.4405353,12.944365 10.4405353,12.4353169 C10.4405353,12.126252 10.4768959,11.7990068 10.4768959,11.4717616 L10.4768959,6.76306708 C10.4768959,6.47218248 10.4405353,6.16311758 10.4405353,5.8358724 C10.4405353,5.59952866 10.4950762,4.81777628 10.4950762,3.45425469 C10.4950762,3.23609124 10.4768959,3.1451898 10.3496339,3.10882922 C9.87694638,2.9997475 9.36789833,3.12700951 8.93157142,2.94520663 C8.62250652,2.81794462 8.60432624,2.25435569 8.60432624,1.0544567 C8.60432624,0.399966333 8.87703055,0.0909014393 9.45879976,0.0909014393 C11.0586651,0.0909014393 11.9313189,0.0545408636 12.0949415,0.0545408636 C12.6403501,0.0545408636 13.0948573,0.109081727 13.4766434,0.109081727 C13.8220688,0.109081727 14.149314,0.0727211514 14.4583789,0.0727211514 C15.1492299,0.0727211514 15.2764919,0.181802879 15.2764919,0.963555256 L15.2764919,1.18171871 C15.2764919,2.43615857 15.2583116,3.05428836 14.6401818,3.05428836 L14.0402323,3.05428836 C13.5493645,3.05428836 13.4221025,3.18155037 13.4221025,3.49061527 L13.4221025,3.79968016 Z M18.1853379,0.0363605757 C18.6216648,0.0363605757 18.8943692,0.0545408636 19.076172,0.218163454 C19.2397946,0.381786045 19.2579749,0.76357209 19.2579749,1.41806245 L19.2579749,2.50887972 C19.2579749,5.9813147 19.2034341,8.50837472 19.2034341,10.0536992 C19.2034341,10.6172881 19.2397946,11.2717785 19.2397946,12.0535308 C19.2397946,13.0534467 18.9670903,13.1261678 18.0762562,13.1261678 L17.4399461,13.1261678 C16.3491289,13.1261678 16.2582274,12.9989058 16.2582274,11.9262688 C16.2582274,11.2899588 16.3309486,8.2356704 16.3309486,2.78158404 C16.3309486,1.61804562 16.294588,0.981735544 16.294588,0.854473529 C16.294588,0.0727211514 16.5309317,0.0363605757 17.3490447,0.0363605757 L18.1853379,0.0363605757 Z M21.5486912,13.1261678 C21.4214292,13.1261678 21.2759869,13.1625284 21.094184,13.1625284 C20.4033331,13.1625284 20.3851528,12.6353001 20.3851528,11.4535813 L20.3851528,11.2717785 C20.3851528,9.49011026 20.4215133,7.50845888 20.4215133,5.32682434 C20.4215133,4.14510563 20.4033331,2.79976433 20.4033331,1.27262015 C20.4033331,0.363605757 20.4396936,0.0363605757 21.0032826,0.0363605757 C21.0760037,0.0363605757 21.348708,0.0545408636 21.8213955,0.0545408636 C22.2395421,0.0545408636 22.5667873,0.0181802879 22.7849508,0.0181802879 C22.9485734,0.0181802879 23.0576551,0.0363605757 23.1303762,0.0909014393 C23.2939988,0.218163454 23.3121791,0.527228348 23.3121791,0.981735544 C23.3121791,1.16353842 23.2939988,1.98165138 23.2939988,3.41789412 C23.2939988,7.09031226 23.2939988,9.14468479 23.36672,9.54465112 C23.4394411,9.98097803 23.621244,10.1264203 24.0575709,10.1264203 C24.2575541,10.1264203 24.4938978,10.0718795 24.7666021,10.0718795 C25.4392728,10.0718795 25.5847151,10.3809444 25.5847151,11.180877 L25.5847151,12.1444323 C25.5847151,12.8171029 25.2574699,13.1443481 24.566619,13.1443481 C24.2575541,13.1443481 24.00303,13.1261678 23.8212272,13.1261678 L21.5486912,13.1261678 Z M27.7845299,13.1261678 C27.6572679,13.1261678 27.5118256,13.1625284 27.3300227,13.1625284 C26.6391718,13.1625284 26.6209915,12.6353001 26.6209915,11.4535813 L26.6209915,11.2717785 C26.6209915,9.49011026 26.6573521,7.50845888 26.6573521,5.32682434 C26.6573521,4.14510563 26.6391718,2.79976433 26.6391718,1.27262015 C26.6391718,0.363605757 26.6755324,0.0363605757 27.2391213,0.0363605757 C27.3118424,0.0363605757 27.5845468,0.0545408636 28.0572342,0.0545408636 C28.4753809,0.0545408636 28.802626,0.0181802879 29.0207895,0.0181802879 C29.1844121,0.0181802879 29.2934938,0.0363605757 29.366215,0.0909014393 C29.5298376,0.218163454 29.5480178,0.527228348 29.5480178,0.981735544 C29.5480178,1.16353842 29.5298376,1.98165138 29.5298376,3.41789412 C29.5298376,7.09031226 29.5298376,9.14468479 29.6025587,9.54465112 C29.6752799,9.98097803 29.8570827,10.1264203 30.2934096,10.1264203 C30.4933928,10.1264203 30.7297366,10.0718795 31.0024409,10.0718795 C31.6751115,10.0718795 31.8205538,10.3809444 31.8205538,11.180877 L31.8205538,12.1444323 C31.8205538,12.8171029 31.4933086,13.1443481 30.8024577,13.1443481 C30.4933928,13.1443481 30.2388688,13.1261678 30.0570659,13.1261678 L27.7845299,13.1261678 Z M44.2195101,11.744466 C44.2195101,12.2716943 44.2013299,12.5807592 43.9649861,12.7625621 C43.5286592,13.0898073 42.7469068,13.3443313 41.6015487,13.3443313 C38.5654406,13.3443313 36.6565104,10.8899924 36.6565104,6.94486996 C36.6565104,2.59978116 38.7654238,0.0363605757 41.8924333,0.0363605757 C43.5286592,0.0363605757 44.0740678,0.327245181 44.0740678,1.36352159 C44.0740678,2.65432203 44.0558876,3.25427153 43.4013972,3.25427153 C43.1468732,3.25427153 42.7469068,3.05428836 42.2014982,3.05428836 C40.5289117,3.05428836 39.7471593,4.16328592 39.7471593,6.45400219 C39.7471593,8.87198047 40.1289454,10.1446006 41.1470415,10.1446006 C41.619729,10.1446006 41.7106304,9.78099487 41.7106304,9.14468479 L41.7106304,8.12658867 C41.7106304,7.94478579 41.5651881,7.7811632 41.2743035,7.67208147 C40.8743372,7.50845888 40.7288949,7.21757428 40.7288949,6.65398535 C40.7288949,4.92685801 40.8561569,4.72687484 41.9833347,4.72687484 L43.0377914,4.72687484 C43.9468058,4.72687484 44.2195101,5.03593974 44.2195101,6.01767528 L44.2195101,11.744466 Z M44.8921808,11.3263193 L45.4557697,8.69017759 C45.5466712,8.27203097 45.5284909,7.7811632 45.6193923,7.27211514 C46.292063,3.79968016 46.6011279,1.90893022 46.6556687,1.56350476 C46.8556519,0.454507196 46.928373,0.0363605757 47.4556014,0.0363605757 L49.6917768,0.0363605757 C50.0372023,0.0363605757 50.2553657,0.0545408636 50.400808,0.25452403 C50.5826109,0.527228348 50.8553152,2.10891339 51.4916253,4.99957916 C51.7097887,5.99949499 51.8734113,7.56299975 52.2551974,9.63555256 C52.4733608,10.8172713 52.8187863,11.744466 52.8187863,12.4353169 C52.8187863,12.8352832 52.4915411,13.1261678 51.9824931,13.1261678 L50.3826277,13.1261678 C50.146284,13.1261678 49.89176,12.9261847 49.8372191,12.7080212 C49.7281374,12.2716943 49.7644979,11.8171871 49.6735965,11.4535813 C49.5645148,10.9990742 49.3645316,10.8354516 48.8918441,10.8354516 C48.2191735,10.8354516 47.8555677,11.0717953 47.8555677,11.3990405 C47.8555677,11.6353842 47.873748,11.8353674 47.873748,12.0353506 C47.873748,12.8352832 47.7283057,13.1261678 47.0192745,13.1261678 L45.346688,13.1261678 C44.8376399,13.1261678 44.6558371,12.9625452 44.6558371,12.5989395 C44.6558371,12.253514 44.7830991,11.8353674 44.8921808,11.3263193 Z M48.6736807,3.27245181 L48.1646326,6.96305025 C48.1100917,7.36301658 48.0737312,7.58118004 48.0737312,7.58118004 C48.0737312,7.79934349 48.3282552,7.96296608 48.7827624,7.96296608 C49.2918105,7.96296608 49.4372528,7.79934349 49.4372528,7.45391802 C49.4372528,7.34483629 49.4190725,7.19939399 49.4008922,7.05395169 L48.819123,3.25427153 L48.6736807,3.27245181 Z M53.3460146,3.58151671 C53.3460146,3.1451898 53.3823752,2.56342059 53.3823752,1.83620907 C53.3823752,1.43624274 53.3278344,1.07263698 53.3278344,0.727211514 C53.3278344,0.145442303 53.5459978,0.0363605757 54.255029,0.0363605757 L55.9457958,0.0363605757 C56.5639256,0.0363605757 56.8002693,0.163622591 57.0366131,1.199899 L57.9092669,5.05412002 L58.1274304,5.05412002 L59.181887,0.709031226 C59.3091491,0.218163454 59.5091322,0.0363605757 59.8909183,0.0363605757 L61.8907499,0.0363605757 C62.5452403,0.0363605757 62.6361417,0.327245181 62.6361417,1.199899 C62.6361417,1.98165138 62.5634206,3.19973066 62.5634206,4.83595657 C62.5634206,5.99949499 62.5997812,7.85388435 62.5997812,10.3809444 C62.5997812,11.3990405 62.6361417,11.9626294 62.6361417,12.0717111 C62.6361417,12.8352832 62.52706,13.1261678 62.0725528,13.1261678 L60.4363269,13.1261678 C59.9272788,13.1261678 59.7818365,12.8534635 59.7818365,12.1807929 L59.7818365,8.69017759 C59.7818365,7.54481946 59.745476,6.70852622 59.7091154,6.18129787 L59.4364111,6.18129787 C58.9455433,8.54473529 58.5092164,9.74463429 58.0728895,9.74463429 C57.600202,9.74463429 57.2002357,8.526555 56.4184833,6.18129787 L56.2003198,6.18129787 L56.2003198,11.4899419 C56.2003198,11.7990068 56.1639593,12.126252 56.1639593,12.508038 C56.1639593,13.0352664 56.0912381,13.1261678 55.200404,13.1261678 L54.0186853,13.1261678 C53.5641781,13.1261678 53.3460146,12.7807424 53.3460146,12.0898914 L53.3460146,3.58151671 Z M63.854221,1.38170188 C63.854221,1.29080044 63.8360407,1.14535813 63.8360407,0.927194681 C63.8360407,0.0727211514 64.2360071,0.0363605757 65.1995623,0.0363605757 L68.0356872,0.0363605757 C68.1084084,0.0363605757 68.2174901,0.0545408636 68.3447521,0.0545408636 C68.3811127,0.0545408636 68.4901944,0.0363605757 68.6901776,0.0363605757 C69.4355694,0.0363605757 69.6537329,0.25452403 69.6537329,0.981735544 C69.6537329,1.61804562 69.6719131,1.98165138 69.6719131,2.0907331 C69.6719131,2.81794462 69.4355694,2.98156721 68.781079,2.98156721 C68.5810959,2.98156721 68.3629324,2.96338692 68.1084084,2.96338692 L67.2721151,2.96338692 C66.8721488,2.96338692 66.7448868,3.1451898 66.7448868,3.69059843 L66.7448868,3.92694218 C66.7448868,4.59961283 66.7812474,4.83595657 67.3811969,4.83595657 C67.6902618,4.83595657 68.1084084,4.78141571 68.6174564,4.78141571 C69.4901103,4.78141571 69.5628314,5.0904806 69.5628314,5.99949499 L69.5628314,6.52672334 C69.5628314,7.34483629 69.344668,7.74480263 68.8174396,7.74480263 C68.4901944,7.74480263 68.0175069,7.67208147 67.3448363,7.67208147 C66.8176079,7.67208147 66.7994277,7.85388435 66.7994277,8.29021126 L66.7812474,9.36284825 C66.7812474,9.92643717 66.8357882,10.0355189 67.3993772,10.0355189 C68.3083915,10.0355189 68.8538002,10.0173386 68.9992425,10.0173386 C69.7446343,10.0173386 69.7991752,10.3627641 69.7991752,11.3990405 C69.7991752,12.6898409 69.7991752,13.1261678 68.8356199,13.1261678 C68.0902281,13.1261678 67.0903123,13.0534467 65.8358724,13.0534467 C65.4540864,13.0534467 65.0177594,13.1261678 64.545072,13.1261678 C64.0178436,13.1261678 63.7087787,12.8352832 63.7087787,12.3625957 C63.7087787,11.7808265 63.8360407,11.0717953 63.8360407,10.1991415 L63.854221,1.38170188 Z M7.68824173,36.3565356 C7.68824173,39.0674186 7.86600455,40.356199 9.55475128,40.356199 C9.82139551,40.356199 10.2213618,40.2673176 10.6657689,40.1339955 C9.82139551,39.3785035 9.37698847,38.8896558 9.37698847,38.2230452 C9.37698847,37.5564346 9.86583621,36.9787055 10.5324468,36.9787055 C11.0657352,36.9787055 11.6879051,37.2453497 12.3100749,37.8675196 L12.3100749,25.8685296 C12.3100749,23.6020537 11.5545829,22.4465954 10.0880397,22.4465954 C8.13264877,22.4465954 7.68824173,23.8686979 7.68824173,27.2017507 L7.68824173,36.3565356 Z M16.1764161,46.044609 C14.0877031,47.555593 11.9545493,48 9.28810706,48 C5.51064725,48 2.97752714,46.4890161 1.51098392,43.1559633 C0.266644222,40.356199 0,35.9121286 0,29.5126673 C0,19.4246276 2.66644222,14.8916758 10.5768875,14.8916758 C17.1541116,14.8916758 19.9538759,18.8024577 19.9538759,27.4239542 C19.9538759,34.0456191 19.7761131,37.4231125 19.7761131,37.6008753 C19.5983503,39.3785035 19.198384,40.0895548 19.198384,40.2228769 C19.198384,40.4006397 19.5094689,40.5339618 20.1760795,40.800606 C21.1982156,41.2005723 21.8203855,40.8894874 21.8203855,42.1782678 C21.8203855,42.9337598 21.7315041,43.5114889 21.7315041,44.0003367 C21.7315041,44.4891844 21.8203855,45.155795 21.8203855,45.9557276 C21.8203855,46.9334231 21.3759785,47.4222709 20.398283,47.4222709 C19.198384,47.4222709 17.6429593,46.9778638 16.1764161,46.044609 Z M23.1091659,35.7788065 L23.1091659,18.6246949 C23.1091659,16.4915411 23.1980473,15.4694049 24.7979126,15.4694049 L28.4420503,15.4694049 C30.2641192,15.4694049 30.3530006,16.2248969 30.3530006,17.9136436 L30.3530006,37.4231125 C30.3530006,39.5118256 31.0640518,40.4895211 32.7083579,40.4895211 C34.3082232,40.4895211 35.1081559,39.6895884 35.1081559,38.0452824 L35.1081559,18.002525 C35.1081559,16.0471341 35.5970036,15.4694049 37.2413097,15.4694049 L40.7076845,15.4694049 C41.9075835,15.4694049 42.3075499,16.2248969 42.3075499,17.7803215 L42.3075499,37.1564683 C42.3075499,44.6669472 39.1967006,48 32.0417473,48 C28.6642539,48 26.2200152,46.9778638 24.7534719,44.9335914 C23.242488,42.8893191 23.1091659,39.9562326 23.1091659,35.7788065 Z M49.8180288,15.4694049 C50.8846057,15.4694049 51.5512162,15.5138456 51.9956233,15.913812 C52.3955896,16.3137783 52.4400303,17.2470331 52.4400303,18.8468984 L52.4400303,21.5133406 C52.4400303,30.001515 52.3067082,36.1787728 52.3067082,39.9562326 C52.3067082,41.3338945 52.3955896,42.9337598 52.3955896,44.84471 C52.3955896,47.2889487 51.728979,47.4667116 49.5513846,47.4667116 L47.9959599,47.4667116 C45.3295177,47.4667116 45.1073142,47.1556266 45.1073142,44.5336251 C45.1073142,42.9782005 45.285077,35.5121623 45.285077,22.1799512 C45.285077,19.3357461 45.1961956,17.7803215 45.1961956,17.4692366 C45.1961956,15.5582863 45.7739248,15.4694049 47.7737564,15.4694049 L49.8180288,15.4694049 Z M54.7065062,45.7779648 L54.7509469,42.1338271 C54.7509469,40.5339618 55.6842017,38.8007743 56.7063379,36.2676542 C59.7727464,28.4905311 62.2169851,24.313105 62.2169851,23.1576467 C62.2169851,22.6687989 61.5503745,22.6243582 59.9060685,22.6243582 C58.2173218,22.6243582 57.2396263,22.7132396 56.9285414,22.7132396 C55.4619981,22.7132396 55.1064725,22.0021884 55.1064725,20.2690009 C55.1064725,19.8245939 55.1509132,19.513509 55.1509132,19.3801869 C55.1509132,19.0691019 55.1064725,18.3580507 55.1064725,17.2470331 C55.1064725,15.9582527 55.8175238,15.5582863 57.5062705,15.5582863 L69.3274977,15.5582863 C69.8163454,15.5582863 70.2163118,15.602727 70.4385153,15.8249306 C70.8384816,16.1804562 70.8829223,17.0248296 70.8829223,18.3580507 L70.8829223,19.8690346 C70.8829223,20.0023567 70.7496002,20.713408 70.3940746,21.6466627 L63.4168841,38.7118929 C63.2391213,39.1563 63.0613585,39.4673849 63.0613585,39.7784698 C63.0613585,40.0895548 63.8168504,40.1339955 65.4167158,40.1339955 L66.6166148,40.1339955 C68.2164801,40.1339955 69.283057,39.9562326 69.727464,39.9562326 C70.4385153,39.9562326 70.9718037,40.6228432 70.9718037,41.556098 C70.9718037,42.5337935 70.8829223,43.4226075 70.8829223,44.1336588 C70.8829223,44.4447437 70.927363,44.84471 70.927363,45.4224392 C70.927363,47.0667452 70.482956,47.5111523 69.283057,47.5111523 C66.883259,47.5111523 64.8389866,47.3778301 63.1057992,47.3778301 C61.7725781,47.3778301 60.2615941,47.5111523 58.6172881,47.5111523 L57.6395926,47.5111523 C56.7063379,47.5111523 56.1286087,47.555593 55.9952866,47.555593 C55.0620318,47.555593 54.7065062,47.0667452 54.7065062,45.7779648 Z" id="STILL-GAME-QUIZ"></path>
        </g>
    </g>
</svg>