<svg height="48" viewBox="0 0 71 48" width="71" xmlns="http://www.w3.org/2000/svg"><path d="m1.27767023 12.0717111-.01818029-1.3817018v-.0727212c0-.65449036.21816346-.92719467.81811296-.92719467.32724518 0 .67267065.45450717 1.61804561.45450717.63631008 0 .92719469-.23634372.92719469-.79993264 0-.81811296-.85447353-1.27262015-1.81802879-2.19981483-1.07263698-1.03627641-1.52714418-2.05437253-1.52714418-3.4542547 0-2.45433886 1.36352159-3.69059843 4.09056477-3.69059843 1.79984849 0 1.87256965.12726202 1.87256965 1.16353842v1.32716102c0 .72721151-.09090144.8908341-.63631008.8908341-.4545072 0-.87265382-.23634374-1.32716101-.23634374-.54540864 0-.83629324.25452403-.83629324.72721151 0 .67267065.8908341 1.23625958 2.14527396 2.49069944.94537497.94537497 1.25443987 1.7998485 1.25443987 3.03610807 0 2.67250228-1.199899 3.94512248-3.87240132 3.94512248-1.18171871 0-1.99983166-.1999832-2.34525713-.3636058-.32724518-.1636226-.34542547-.3999663-.34542547-.7817523zm12.14443227-8.27203094.0181803 7.36301654c0 .563589.0545409.9635553.0545409 1.199899 0 .5454087-.1818029.7635721-.6544904.7635721-.0909014 0-.2363437-.0181803-.4363269-.0181803-.3090649 0-.6908509.0545409-1.1453581.0545409-.5999495 0-.818113-.2181634-.818113-.7272115 0-.3090649.0363606-.6363101.0363606-.9635553v-4.70869452c0-.2908846-.0363606-.5999495-.0363606-.92719468 0-.23634374.0545409-1.01809612.0545409-2.38161771 0-.21816345-.0181803-.30906489-.1454423-.34542547-.47268752-.10908172-.98173557.01818029-1.41806248-.16362259-.3090649-.12726201-.32724518-.69085094-.32724518-1.89074993 0-.65449037.27270431-.96355526.85447352-.96355526 1.59986534 0 2.47251914-.03636058 2.63614174-.03636058.5454086 0 .9999158.05454087 1.3817019.05454087.3454254 0 .6726706-.03636058.9817355-.03636058.690851 0 .818113.10908173.818113.89083411v.21816345c0 1.25443986-.0181803 1.87256965-.6363101 1.87256965h-.5999495c-.4908678 0-.6181298.12726201-.6181298.43632691zm4.7632354-3.76331958c.4363269 0 .7090313.01818028.8908341.18180287.1636226.1636226.1818029.54540864.1818029 1.199899v1.09081727c0 3.47243498-.0545408 5.999495-.0545408 7.54481948 0 .5635889.0363605 1.2180793.0363605 1.9998316 0 .9999159-.2727043 1.072637-1.1635384 1.072637h-.6363101c-1.0908172 0-1.1817187-.127262-1.1817187-1.199899 0-.63631.0727212-3.6905984.0727212-9.14468476 0-1.16353842-.0363606-1.7998485-.0363606-1.92711051 0-.78175238.2363437-.81811295 1.0544567-.81811295zm3.3633533 13.08980722c-.127262 0-.2727043.0363606-.4545072.0363606-.6908509 0-.7090312-.5272283-.7090312-1.7089471v-.1818028c0-1.78166824.0363605-3.76331962.0363605-5.94495416 0-1.18171871-.0181802-2.52706001-.0181802-4.05420419 0-.90901439.0363605-1.23625957.5999495-1.23625957.0727211 0 .3454254.01818028.8181129.01818028.4181466 0 .7453918-.03636057.9635553-.03636057.1636226 0 .2727043.01818029.3454254.07272115.1636226.12726201.1818029.43632691.1818029.8908341 0 .18180288-.0181803.99991584-.0181803 2.43615858 0 3.67241814 0 5.72679067.0727212 6.126757.0727211.43632691.254524.58176918.6908509.58176918.1999832 0 .4363269-.0545408.7090312-.0545408.6726707 0 .818113.3090649.818113 1.1089975v.9635553c0 .6726706-.3272452.9999158-1.0180961.9999158-.3090649 0-.563589-.0181803-.7453918-.0181803zm6.2358387 0c-.127262 0-.2727043.0363606-.4545072.0363606-.6908509 0-.7090312-.5272283-.7090312-1.7089471v-.1818028c0-1.78166824.0363606-3.76331962.0363606-5.94495416 0-1.18171871-.0181803-2.52706001-.0181803-4.05420419 0-.90901439.0363606-1.23625957.5999495-1.23625957.0727211 0 .3454255.01818028.8181129.01818028.4181467 0 .7453918-.03636057.9635553-.03636057.1636226 0 .2727043.01818029.3454255.07272115.1636226.12726201.1818028.43632691.1818028.8908341 0 .18180288-.0181802.99991584-.0181802 2.43615858 0 3.67241814 0 5.72679067.0727211 6.126757.0727212.43632691.254524.58176918.6908509.58176918.1999832 0 .436327-.0545408.7090313-.0545408.6726706 0 .8181129.3090649.8181129 1.1089975v.9635553c0 .6726706-.3272452.9999158-1.0180961.9999158-.3090649 0-.5635889-.0181803-.7453918-.0181803zm16.4349802-1.3817018c0 .5272283-.0181802.8362932-.254524 1.0180961-.4363269.3272452-1.2180793.5817692-2.3634374.5817692-3.0361081 0-4.9450383-2.4543389-4.9450383-6.39946134 0-4.3450888 2.1089134-6.90850938 5.2359229-6.90850938 1.6362259 0 2.1816345.2908846 2.1816345 1.32716101 0 1.29080044-.0181802 1.89074994-.6726706 1.89074994-.254524 0-.6544904-.19998317-1.199899-.19998317-1.6725865 0-2.4543389 1.10899756-2.4543389 3.39971383 0 2.41797828.3817861 3.69059841 1.3998822 3.69059841.4726875 0 .5635889-.36360573.5635889-.99991581v-1.01809612c0-.18180288-.1454423-.34542547-.4363269-.4545072-.3999663-.16362259-.5454086-.45450719-.5454086-1.01809612 0-1.72712734.127262-1.92711051 1.2544398-1.92711051h1.0544567c.9090144 0 1.1817187.3090649 1.1817187 1.29080044zm.6726707-.4181467.5635889-2.63614171c.0909015-.41814662.0727212-.90901439.1636226-1.41806245.6726707-3.47243498.9817356-5.36318492 1.0362764-5.70861038.1999832-1.10899756.2727043-1.52714418.7999327-1.52714418h2.2361754c.3454255 0 .5635889.01818028.7090312.21816345.1818029.27270432.4545072 1.85438936 1.0908173 4.74505513.2181634.99991583.381786 2.56342059.7635721 4.6359734.2181634 1.18171874.5635889 2.10891344.5635889 2.79976434 0 .3999663-.3272452.6908509-.8362932.6908509h-1.5998654c-.2363437 0-.4908677-.1999831-.5454086-.4181466-.1090817-.4363269-.0727212-.8908341-.1636226-1.2544399-.1090817-.4545071-.3090649-.6181297-.7817524-.6181297-.6726706 0-1.0362764.2363437-1.0362764.5635889 0 .2363437.0181803.4363269.0181803.6363101 0 .7999326-.1454423 1.0908172-.8544735 1.0908172h-1.6725865c-.5090481 0-.6908509-.1636226-.6908509-.5272283 0-.3454255.127262-.7635721.2363437-1.2726202zm3.7814999-8.05386749-.5090481 3.69059844c-.0545409.39996633-.0909014.61812979-.0909014.61812979 0 .21816345.254524.38178604.7090312.38178604.5090481 0 .6544904-.16362259.6544904-.50904806 0-.10908173-.0181803-.25452403-.0363606-.39996633l-.5817692-3.79968016zm4.6723339.3090649c0-.43632691.0363606-1.01809612.0363606-1.74530764 0-.39996633-.0545408-.76357209-.0545408-1.10899756 0-.58176921.2181634-.69085093.9271946-.69085093h1.6907668c.6181298 0 .8544735.12726201 1.0908173 1.16353842l.8726538 3.85422102h.2181635l1.0544566-4.34508879c.1272621-.49086778.3272452-.67267065.7090313-.67267065h1.9998316c.6544904 0 .7453918.2908846.7453918 1.16353842 0 .78175238-.0727211 1.99983166-.0727211 3.63605757 0 1.16353842.0363606 3.01792778.0363606 5.54498783 0 1.0180961.0363605 1.581685.0363605 1.6907667 0 .7635721-.1090817 1.0544567-.5635889 1.0544567h-1.6362259c-.5090481 0-.6544904-.2727043-.6544904-.9453749v-3.49061531c0-1.14535813-.0363605-1.98165137-.0727211-2.50887972h-.2727043c-.4908678 2.36343742-.9271947 3.56333642-1.3635216 3.56333642-.4726875 0-.8726538-1.21807929-1.6544062-3.56333642h-.2181635v5.30864403c0 .3090649-.0363605.6363101-.0363605 1.0180961 0 .5272284-.0727212.6181298-.9635553.6181298h-1.1817187c-.4545072 0-.6726707-.3454254-.6726707-1.0362764zm10.5082064-2.19981483c0-.09090144-.0181803-.23634375-.0181803-.4545072 0-.85447353.3999664-.8908341 1.3635216-.8908341h2.8361249c.0727212 0 .1818029.01818028.3090649.01818028.0363606 0 .1454423-.01818028.3454255-.01818028.7453918 0 .9635553.21816345.9635553.94537496 0 .63631008.0181802.99991584.0181802 1.10899756 0 .72721152-.2363437.89083411-.8908341.89083411-.1999831 0-.4181466-.01818029-.6726706-.01818029h-.8362933c-.3999663 0-.5272283.18180288-.5272283.72721151v.23634375c0 .67267065.0363606.90901439.6363101.90901439.3090649 0 .7272115-.05454086 1.2362595-.05454086.8726539 0 .945375.30906489.945375 1.21807928v.52722835c0 .81811295-.2181634 1.21807929-.7453918 1.21807929-.3272452 0-.7999327-.07272116-1.4726033-.07272116-.5272284 0-.5454086.18180288-.5454086.61812979l-.0181803 1.07263699c0 .56358892.0545408.67267065.6181298.67267065.9090143 0 1.454423-.0181803 1.5998653-.0181803.7453918 0 .7999327.3454255.7999327 1.3817019 0 1.2908004 0 1.7271273-.9635553 1.7271273-.7453918 0-1.7453076-.0727211-2.9997475-.0727211-.381786 0-.818113.0727211-1.2908004.0727211-.5272284 0-.8362933-.2908846-.8362933-.7635721 0-.5817692.127262-1.2908004.127262-2.1634542zm-56.16597927 34.97483372c0 2.710883.17776282 3.9996634 1.86650955 3.9996634.26664423 0 .66661052-.0888814 1.11101762-.2222035-.84437339-.755492-1.28878043-1.2443397-1.28878043-1.9109503s.48884774-1.2443397 1.15545833-1.2443397c.5332884 0 1.1554583.2666442 1.7776281.8888141v-11.99899c0-2.2664759-.755492-3.4219342-2.2220352-3.4219342-1.95539093 0-2.39979797 1.4221025-2.39979797 4.7551553zm8.48817437 9.6880734c-2.088713 1.510984-4.2218668 1.955391-6.88830904 1.955391-3.77745981 0-6.31057992-1.5109839-7.77712314-4.8440367-1.2443397-2.7997643-1.51098392-7.2438347-1.51098392-13.643296 0-10.0880397 2.66644222-14.6209915 10.5768875-14.6209915 6.5772241 0 9.3769884 3.9107819 9.3769884 12.5322784 0 6.6216649-.1777628 9.9991583-.1777628 10.1769211-.1777628 1.7776282-.5777291 2.4886795-.5777291 2.6220016 0 .1777628.3110849.3110849.9776955.5777291 1.0221361.3999663 1.644306.0888814 1.644306 1.3776618 0 .755492-.0888814 1.3332211-.0888814 1.8220689 0 .4888477.0888814 1.1554583.0888814 1.9553909 0 .9776955-.444407 1.4665433-1.4221025 1.4665433-1.199899 0-2.7553237-.4444071-4.2218669-1.3776619zm6.9327498-10.2658025v-17.1541116c0-2.1331538.0888814-3.15529 1.6887467-3.15529h3.6441377c1.8220689 0 1.9109503.755492 1.9109503 2.4442387v19.5094689c0 2.0887131.7110512 3.0664086 2.3553573 3.0664086 1.5998653 0 2.399798-.7999327 2.399798-2.4442387v-20.0427574c0-1.9553909.4888477-2.5331201 2.1331538-2.5331201h3.4663748c1.199899 0 1.5998654.755492 1.5998654 2.3109166v19.3761468c0 7.5104789-3.1108493 10.8435317-10.2658026 10.8435317-3.3774934 0-5.8217321-1.0221362-7.2882754-3.0664086-1.5109839-2.0442723-1.644306-4.9773588-1.644306-9.1547849zm26.7088629-20.3094016c1.0665769 0 1.7331874.0444407 2.1775945.4444071.3999663.3999663.444407 1.3332211.444407 2.9330864v2.6664422c0 8.4881744-.1333221 14.6654322-.1333221 18.442892 0 1.3776619.0888814 2.9775272.0888814 4.8884774 0 2.4442387-.6666106 2.6220016-2.844205 2.6220016h-1.5554247c-2.6664422 0-2.8886457-.311085-2.8886457-2.9330865 0-1.5554246.1777628-9.0214628.1777628-22.3536739 0-2.8442051-.0888814-4.3996297-.0888814-4.7107146 0-1.9109503.5777292-1.9998317 2.5775608-1.9998317zm4.8884774 30.3085599.0444407-3.6441377c0-1.5998653.9332548-3.3330528 1.955391-5.8661729 3.0664085-7.7771231 5.5106472-11.9545492 5.5106472-13.1100075 0-.4888478-.6666106-.5332885-2.3109166-.5332885-1.6887467 0-2.6664422.0888814-2.9775271.0888814-1.4665433 0-1.8220689-.7110512-1.8220689-2.4442387 0-.444407.0444407-.7554919.0444407-.888814 0-.311085-.0444407-1.0221362-.0444407-2.1331538 0-1.2887804.7110513-1.6887468 2.399798-1.6887468h11.8212272c.4888477 0 .8888141.0444407 1.1110176.2666443.3999663.3555256.444407 1.199899.444407 2.5331201v1.5109839c0 .1333221-.1333221.8443734-.4888477 1.7776281l-6.9771905 17.0652302c-.1777628.4444071-.3555256.755492-.3555256 1.0665769 0 .311085.7554919.3555257 2.3553573.3555257h1.199899c1.5998653 0 2.6664422-.1777629 3.1108492-.1777629.7110513 0 1.2443397.6666106 1.2443397 1.5998654 0 .9776955-.0888814 1.8665095-.0888814 2.5775608 0 .3110849.0444407.7110512.0444407 1.2887804 0 1.644306-.444407 2.0887131-1.644306 2.0887131-2.399798 0-4.4440704-.1333222-6.1772578-.1333222-1.3332211 0-2.8442051.1333222-4.4885111.1333222h-.9776955c-.9332547 0-1.5109839.0444407-1.644306.0444407-.9332548 0-1.2887804-.4888478-1.2887804-1.7776282z" fill-rule="evenodd"/></svg>